<svg width="72" height="38" viewBox="0 0 72 38" fill="none" xmlns="http://www.w3.org/2000/svg">
<path d="M20.3149 37.6441C19.8345 37.4205 19.6622 37.2588 19.4605 36.8424C19.2278 36.362 19.2079 36.1332 19.2079 33.9433V31.5657H19.856H20.5041V33.7526C20.5041 36.4801 20.6074 36.7374 21.7054 36.7448C22.1236 36.7476 22.3392 36.6793 22.5892 36.4645L22.9198 36.1805L22.9563 33.8731L22.9928 31.5657H23.6423H24.2918L24.2539 34.0783L24.2161 36.5909L23.8762 37.0359C23.4059 37.6518 22.7581 37.921 21.7415 37.9227C21.118 37.9238 20.7696 37.8558 20.3149 37.6441ZM49.3306 37.7534C48.2738 37.3769 47.6072 36.2202 47.6072 34.7627C47.6072 32.7422 48.7829 31.4479 50.6183 31.4479C51.38 31.4479 52.1583 31.7144 52.5822 32.1204C52.9166 32.4407 53.3537 33.3996 53.2242 33.529C53.1839 33.5693 52.8892 33.6274 52.5693 33.6581C52.0151 33.7113 51.9789 33.6968 51.7988 33.3486C51.2648 32.3164 49.7265 32.4206 49.196 33.5248C48.9165 34.1064 48.9072 35.3618 49.1785 35.8861C49.6002 36.7013 50.5547 36.9975 51.3819 36.5699C51.6713 36.4203 52.0851 35.8703 52.0851 35.6354C52.0851 35.5998 51.7935 35.5706 51.437 35.5706H50.7889V35.0406V34.5105H52.0851H53.3814V36.1596V37.8087H52.8511C52.364 37.8087 52.3208 37.7847 52.3208 37.5142C52.3208 37.2097 52.1595 37.1219 52.0186 37.3498C51.8587 37.6084 50.9557 37.9213 50.3764 37.9187C50.0524 37.9173 49.5818 37.8429 49.3306 37.7534ZM62.8626 37.7051C62.2913 37.4457 61.7981 36.8913 61.6864 36.3833C61.5884 35.9373 61.7375 35.8106 62.3636 35.808C62.7326 35.8065 62.8315 35.8623 62.9847 36.1585C63.2775 36.7245 63.6541 36.9036 64.4184 36.8402C65.1286 36.7813 65.401 36.5741 65.401 36.0926C65.401 35.7148 65.1875 35.5911 63.9765 35.2672C62.2345 34.8012 61.8658 34.4653 61.8658 33.3445C61.8658 32.244 62.6264 31.5726 63.9829 31.4756C64.666 31.4267 64.881 31.4623 65.4363 31.7165C66.1527 32.0443 66.4366 32.3806 66.5413 33.0257L66.6102 33.4504H65.9595C65.3773 33.4504 65.3015 33.4216 65.2402 33.1775C65.1525 32.8283 64.7223 32.5995 64.1241 32.5838C63.2014 32.5596 62.8203 33.3634 63.545 33.8051C63.7557 33.9334 64.0181 34.0387 64.1281 34.0389C64.2382 34.0391 64.7556 34.1743 65.2779 34.3392C65.9295 34.545 66.284 34.7253 66.4075 34.9137C67.0965 35.9648 66.7386 37.1683 65.5777 37.7038C64.9344 38.0006 63.515 38.0013 62.8626 37.7051ZM0.353584 34.6872V31.5657H1.21055H2.06751L2.82979 33.6222C3.24904 34.7533 3.62696 35.6412 3.66961 35.5953C3.71226 35.5493 4.07735 34.6239 4.48094 33.5387L5.21473 31.5657H6.08366H6.9526L6.97861 33.7743C6.99292 34.989 7.00618 36.3805 7.00807 36.8663L7.01151 37.7498L6.33394 37.7851L5.65636 37.8204L5.65041 35.7826L5.64445 33.7449L4.89546 35.7473L4.14646 37.7498H3.64802H3.14958L2.40632 35.8651L1.66307 33.9805L1.65645 35.8946L1.64982 37.8087H1.0017H0.353584V34.6872ZM9.89858 36.6801V35.5397L9.28999 34.4656C8.95527 33.8748 8.4515 33.0081 8.17052 32.5395C7.88953 32.0709 7.65963 31.6601 7.65963 31.6266C7.65963 31.5931 8.00323 31.5657 8.42319 31.5657H9.18676L9.43677 32.0663C9.82842 32.8506 10.5301 34.0395 10.6006 34.0383C10.6358 34.0378 10.9562 33.4816 11.3127 32.8025L11.9608 31.5678L12.7014 31.5667C13.4328 31.5657 13.4403 31.569 13.3011 31.8307C13.2235 31.9765 12.74 32.8301 12.2265 33.7276L11.2929 35.3594L11.2733 36.5546L11.2537 37.7498L10.5762 37.7851L9.89858 37.8204V36.6801ZM14.023 34.6872V31.5657H16.203H18.383V32.1547V32.7436H16.91H15.437V33.3915C15.437 33.7478 15.4503 34.0791 15.4665 34.1277C15.4827 34.1763 16.0262 34.216 16.6744 34.216H17.8527L17.8887 34.7755L17.9246 35.3351H16.6808H15.437V36.5719V37.8087H14.73H14.023V34.6872ZM25.5712 34.6872V31.5657H26.2689H26.9666L28.1838 33.4766L29.401 35.3876L29.4334 33.4766L29.4658 31.5657H30.1699H30.874V34.6928V37.8199L30.1449 37.7849L29.4158 37.7498L28.2561 35.9266C27.6183 34.9238 27.051 34.0579 26.9955 34.0025C26.9396 33.9465 26.8959 34.0765 26.8976 34.2944C26.8992 34.5104 26.8931 35.3895 26.884 36.2479L26.8675 37.8087H26.2194H25.5712V34.6872ZM32.1702 34.6872V31.5657L33.7316 31.5709C35.4154 31.5765 35.9054 31.6842 36.5774 32.1966C37.8255 33.1482 37.927 35.8236 36.7593 36.9909C36.114 37.6359 35.4635 37.8087 33.6812 37.8087H32.1702V34.6872ZM35.3519 36.4244C35.8911 36.1552 36.1771 35.5714 36.174 34.7461C36.1689 33.3611 35.5713 32.7436 34.2362 32.7436H33.5843V34.6872V36.6308L34.2619 36.6305C34.6708 36.6304 35.103 36.5487 35.3519 36.4244ZM38.6514 34.6872V31.5657L39.329 31.5656L40.0066 31.5656L39.9734 34.6871L39.9401 37.8087H39.2958H38.6514V34.6872ZM41.3554 37.7203C41.3519 37.6717 41.3386 36.2671 41.3259 34.599L41.3028 31.5659L42.0098 31.5672L42.7169 31.5684L43.9542 33.5638L45.1915 35.5592L45.2238 33.5625L45.256 31.5657H45.9013H46.5467V34.6872V37.8087H45.8447H45.1428L43.9298 35.8482L42.7169 33.8877L42.6846 35.8482L42.6523 37.8087H42.007C41.6521 37.8087 41.3589 37.7689 41.3554 37.7203ZM54.4419 34.6872V31.5657H55.149H55.856V34.0982V36.6308H57.2504C58.0174 36.6308 58.6676 36.6535 58.6955 36.6814C58.7233 36.7092 58.7268 36.9742 58.7032 37.2703L58.6604 37.8087H56.5512H54.4419V34.6872ZM59.3912 34.6872V31.5657H60.0982H60.8052V34.6872V37.8087H60.0982H59.3912V34.6872ZM68.8183 35.282V32.7436H67.9345H67.0507V32.1547V31.5657H69.5254H72V32.1547V32.7436H71.1162H70.2324L70.2216 34.8933C70.2055 38.0878 70.2919 37.7436 69.4959 37.7851L68.8183 37.8204V35.282ZM0.766022 28.5208C0.636399 28.4982 0.411031 28.3697 0.265204 28.2353L6.5554e-05 27.9909V18.0684C6.5554e-05 6.6851 -0.0256608 7.03897 0.942177 5.11039C1.91644 3.16901 3.45962 1.67623 5.40451 0.793796C6.33097 0.373447 8.02525 0.000924726 9.01479 3.59507e-06C10.9209 -0.00177506 13.0303 0.656551 14.5241 1.71937C14.8321 1.93851 15.1368 2.11782 15.2014 2.11782C15.2659 2.11782 15.5707 1.93843 15.8787 1.71918C21.0221 -1.94207 27.9642 0.541684 29.8328 6.71169L30.1003 7.59513L30.1386 17.7551L30.1768 27.9151L29.8826 28.2091C29.5453 28.5464 29.4715 28.5513 25.1003 28.5303L22.5671 28.5182L22.3016 28.2096L22.0361 27.901V18.7729C22.0361 8.92487 22.0541 9.21803 21.4234 8.80873C20.7405 8.36554 19.8943 8.49711 19.3354 9.13338L18.9722 9.54688V18.7894C18.9722 27.8749 18.9682 28.036 18.7365 28.2676C18.512 28.4921 18.3437 28.5031 15.1607 28.5031C11.915 28.5031 11.8142 28.4961 11.5961 28.2553C11.3805 28.0173 11.3692 27.6471 11.3127 18.9792L11.2537 9.95096L10.9715 9.4971C10.4571 8.67006 9.59846 8.37997 8.83417 8.77504C8.10301 9.15298 8.13099 8.75513 8.13099 18.7729V27.901L7.84625 28.2315L7.56151 28.562H4.2816C2.47766 28.562 0.895646 28.5435 0.766022 28.5208ZM55.8614 28.5343C52.9763 28.5003 52.8515 28.4893 52.5913 28.245L52.3208 27.9909V14.4012V0.811399L52.61 0.522274L52.8993 0.23315H56.3604C59.8177 0.23315 59.8217 0.233503 60.0756 0.503557L60.3297 0.773966L60.3613 10.2311L60.3928 19.6882L60.7776 20.0318L61.1625 20.3755H66.1633C69.65 20.3755 71.2531 20.4161 71.4583 20.5095C71.6202 20.5833 71.8083 20.8032 71.8763 20.9983C71.9512 21.2131 72 22.6446 72 24.627C72 27.8655 71.9971 27.9044 71.7312 28.2134L71.4625 28.5257L65.1617 28.5477C61.6963 28.5598 57.5111 28.5538 55.8614 28.5343ZM32.6416 28.2676C32.4096 28.0356 32.4059 27.8755 32.4068 17.9902C32.4076 8.30382 32.416 7.91317 32.647 6.95014C33.372 3.92685 35.4663 1.58627 38.2829 0.65126C39.6506 0.197232 41.1506 0.0975616 45.6447 0.162075L49.6694 0.219849L49.9346 0.527548C50.1966 0.831609 50.1997 0.876289 50.1997 4.30888V7.78252L49.9104 8.07165L49.6212 8.36077H45.6624C41.3688 8.36077 41.2956 8.3707 40.7829 9.02216C40.2982 9.63819 40.5558 10.6489 41.286 10.9952C41.6266 11.1568 42.146 11.1878 44.5112 11.1878H47.3305L47.6161 11.4915L47.9018 11.7953L47.9366 15.088L47.9713 18.3806L47.6216 18.7302L47.2718 19.0798H44.3109C41.97 19.0798 41.2816 19.1152 41.0232 19.2487C40.3486 19.5975 40.3648 19.492 40.3012 23.9377L40.2423 28.0531L39.9641 28.2781C39.7046 28.488 39.457 28.5031 36.2816 28.5031C33.0344 28.5031 32.8664 28.4923 32.6416 28.2676Z" fill="#31372B"/>
</svg>
