<svg width="27" height="27" viewBox="0 0 27 27" fill="none" xmlns="http://www.w3.org/2000/svg">
<path d="M21.2043 6.52466H4.89292C3.99207 6.52466 3.26178 7.25495 3.26178 8.1558V17.9426C3.26178 18.8435 3.99207 19.5738 4.89292 19.5738H21.2043C22.1052 19.5738 22.8355 18.8435 22.8355 17.9426V8.1558C22.8355 7.25495 22.1052 6.52466 21.2043 6.52466Z" stroke="#1E1E1E" stroke-width="1.63114"/>
<path d="M3.26178 8.15576L13.0486 14.6803L22.8355 8.15576" stroke="#1E1E1E" stroke-width="1.63114" stroke-linecap="round" stroke-linejoin="round"/>
<path d="M17.9427 11.418C18.8435 11.418 19.5738 10.6878 19.5738 9.7869C19.5738 8.88605 18.8435 8.15576 17.9427 8.15576C17.0418 8.15576 16.3115 8.88605 16.3115 9.7869C16.3115 10.6878 17.0418 11.418 17.9427 11.418Z" fill="#C6FF55"/>
</svg>
