<svg width="158" height="158" viewBox="0 0 158 158" fill="none" xmlns="http://www.w3.org/2000/svg">
<path d="M31.5637 110.469L63.1263 78.9065L94.6889 94.6878L126.251 47.3439" stroke="#C6FF55" stroke-width="4.73439" stroke-linecap="round" stroke-linejoin="round"/>
<path d="M31.5623 116.782C35.0486 116.782 37.8748 113.955 37.8748 110.469C37.8748 106.983 35.0486 104.156 31.5623 104.156C28.076 104.156 25.2498 106.983 25.2498 110.469C25.2498 113.955 28.076 116.782 31.5623 116.782Z" fill="#C6FF55"/>
<path d="M63.122 85.2189C66.6083 85.2189 69.4345 82.3927 69.4345 78.9064C69.4345 75.4201 66.6083 72.5939 63.122 72.5939C59.6357 72.5939 56.8094 75.4201 56.8094 78.9064C56.8094 82.3927 59.6357 85.2189 63.122 85.2189Z" fill="#C6FF55"/>
<path d="M94.6865 101C98.1728 101 100.999 98.1741 100.999 94.6878C100.999 91.2015 98.1728 88.3752 94.6865 88.3752C91.2002 88.3752 88.374 91.2015 88.374 94.6878C88.374 98.1741 91.2002 101 94.6865 101Z" fill="#C6FF55"/>
<path d="M126.251 53.6564C129.737 53.6564 132.564 50.8302 132.564 47.3439C132.564 43.8576 129.737 41.0314 126.251 41.0314C122.765 41.0314 119.938 43.8576 119.938 47.3439C119.938 50.8302 122.765 53.6564 126.251 53.6564Z" fill="#C6FF55"/>
<path d="M114.415 47.3439H126.251V59.1798" stroke="#C6FF55" stroke-width="4.73439" stroke-linecap="round" stroke-linejoin="round"/>
<path d="M31.5637 78.9064C31.5637 52.7591 52.7603 31.5625 78.9076 31.5625" stroke="#C6FF55" stroke-opacity="0.3" stroke-width="2.36719" stroke-dasharray="3.95 3.95"/>
<path d="M126.25 78.9064C126.25 105.054 105.053 126.25 78.9056 126.25" stroke="#C6FF55" stroke-opacity="0.3" stroke-width="2.36719" stroke-dasharray="3.95 3.95"/>
</svg>
