<svg width="158" height="158" viewBox="0 0 158 158" fill="none" xmlns="http://www.w3.org/2000/svg">
<path d="M78.9078 142.032C113.771 142.032 142.033 113.77 142.033 78.9064C142.033 44.0434 113.771 15.7812 78.9078 15.7812C44.0448 15.7812 15.7827 44.0434 15.7827 78.9064C15.7827 113.77 44.0448 142.032 78.9078 142.032Z" fill="#C6FF55" fill-opacity="0.1"/>
<path d="M78.9069 118.36C100.696 118.36 118.36 100.696 118.36 78.9064C118.36 57.1169 100.696 39.4531 78.9069 39.4531C57.1175 39.4531 39.4536 57.1169 39.4536 78.9064C39.4536 100.696 57.1175 118.36 78.9069 118.36Z" stroke="#C6FF55" stroke-opacity="0.3" stroke-width="3.15626"/>
<path d="M78.9078 102.578C91.9815 102.578 102.58 91.9801 102.58 78.9064C102.58 65.8328 91.9815 55.2345 78.9078 55.2345C65.8342 55.2345 55.2359 65.8328 55.2359 78.9064C55.2359 91.9801 65.8342 102.578 78.9078 102.578Z" stroke="#C6FF55" stroke-width="2.36719"/>
<path d="M96.264 96.2657L122.303 122.305" stroke="#C6FF55" stroke-width="4.73439" stroke-linecap="round"/>
<path d="M75.2235 81.8859V81.6192C75.2287 80.7038 75.3098 79.9742 75.4667 79.4302C75.6289 78.8862 75.8643 78.4468 76.1729 78.1121C76.4815 77.7773 76.8528 77.474 77.287 77.202C77.6113 76.9927 77.9016 76.7757 78.1578 76.5508C78.4141 76.3258 78.6181 76.0774 78.7698 75.8054C78.9215 75.5282 78.9974 75.2196 78.9974 74.8796C78.9974 74.5187 78.911 74.2022 78.7384 73.9303C78.5658 73.6583 78.3331 73.449 78.0402 73.3026C77.7525 73.1561 77.4334 73.0829 77.083 73.0829C76.743 73.0829 76.4213 73.1588 76.1179 73.3104C75.8146 73.4569 75.5661 73.6766 75.3726 73.9695C75.1791 74.2572 75.0744 74.6155 75.0588 75.0444H71.8577C71.8838 73.9983 72.1349 73.1352 72.6109 72.4552C73.0868 71.77 73.7171 71.2601 74.5017 70.9253C75.2863 70.5853 76.1519 70.4153 77.0987 70.4153C78.1395 70.4153 79.0601 70.5879 79.8604 70.9332C80.6607 71.2731 81.2883 71.7674 81.7434 72.416C82.1984 73.0646 82.426 73.8466 82.426 74.7619C82.426 75.3739 82.324 75.9179 82.12 76.3938C81.9212 76.8646 81.6414 77.283 81.2805 77.6492C80.9196 78.0101 80.4933 78.337 80.0016 78.6299C79.5884 78.8757 79.2484 79.132 78.9817 79.3988C78.7201 79.6656 78.524 79.9742 78.3932 80.3246C78.2677 80.675 78.2023 81.1066 78.1971 81.6192V81.8859H75.2235ZM76.777 86.9072C76.2539 86.9072 75.8067 86.7242 75.4354 86.358C75.0692 85.9867 74.8888 85.5421 74.894 85.0242C74.8888 84.5116 75.0692 84.0723 75.4354 83.7061C75.8067 83.34 76.2539 83.1569 76.777 83.1569C77.2739 83.1569 77.7106 83.34 78.0872 83.7061C78.4638 84.0723 78.6548 84.5116 78.66 85.0242C78.6548 85.3695 78.5632 85.6859 78.3854 85.9736C78.2128 86.256 77.9852 86.4836 77.7028 86.6562C77.4203 86.8235 77.1117 86.9072 76.777 86.9072Z" fill="#C6FF55"/>
</svg>
