<svg width="158" height="158" viewBox="0 0 158 158" fill="none" xmlns="http://www.w3.org/2000/svg">
<path d="M78.9504 134.216C109.473 134.216 134.216 109.473 134.216 78.9509C134.216 48.4285 109.473 23.6853 78.9504 23.6853C48.428 23.6853 23.6848 48.4285 23.6848 78.9509C23.6848 109.473 48.428 134.216 78.9504 134.216Z" fill="white" fill-opacity="0.1"/>
<path d="M55.2638 78.9508L71.054 94.741L102.634 63.1606" stroke="white" stroke-width="6.31606" stroke-linecap="round" stroke-linejoin="round"/>
<path d="M78.9488 126.321C105.111 126.321 126.319 105.113 126.319 78.9508C126.319 52.7888 105.111 31.5803 78.9488 31.5803C52.7868 31.5803 31.5784 52.7888 31.5784 78.9508C31.5784 105.113 52.7868 126.321 78.9488 126.321Z" stroke="white" stroke-opacity="0.3" stroke-width="3.15803"/>
<path d="M78.9506 110.531C96.3919 110.531 110.531 96.392 110.531 78.9507C110.531 61.5093 96.3919 47.3704 78.9506 47.3704C61.5092 47.3704 47.3702 61.5093 47.3702 78.9507C47.3702 96.392 61.5092 110.531 78.9506 110.531Z" stroke="white" stroke-opacity="0.2" stroke-width="1.57902"/>
</svg>
