<svg width="27" height="27" viewBox="0 0 27 27" fill="none" xmlns="http://www.w3.org/2000/svg">
<path opacity="0.8" d="M9.78673 11.4181C11.5884 11.4181 13.049 9.95755 13.049 8.15584C13.049 6.35413 11.5884 4.89355 9.78673 4.89355C7.98502 4.89355 6.52444 6.35413 6.52444 8.15584C6.52444 9.95755 7.98502 11.4181 9.78673 11.4181Z" fill="#1E1E1E"/>
<path opacity="0.6" d="M16.3111 11.4181C18.1129 11.4181 19.5734 9.95755 19.5734 8.15584C19.5734 6.35413 18.1129 4.89355 16.3111 4.89355C14.5094 4.89355 13.0489 6.35413 13.0489 8.15584C13.0489 9.95755 14.5094 11.4181 16.3111 11.4181Z" fill="#1E1E1E"/>
<path opacity="0.8" d="M4.89355 19.5738C4.89355 16.3116 6.5247 14.6804 9.78698 14.6804C13.0493 14.6804 14.6804 16.3116 14.6804 19.5738" stroke="#1E1E1E" stroke-width="1.63114" stroke-linecap="round"/>
<path opacity="0.6" d="M11.418 19.5738C11.418 16.3116 13.0491 14.6804 16.3114 14.6804C19.5737 14.6804 21.2048 16.3116 21.2048 19.5738" stroke="#1E1E1E" stroke-width="1.63114" stroke-linecap="round"/>
</svg>
